<svg width="7180" height="6900.000000000001" xmlns="http://www.w3.org/2000/svg" class="img-fluid">
 <g>
  <title>Layer 1</title>
  <g id="l6UFzPAcVaDhkuMMYnKmhgF" fill="rgb(0,0,0)">
   <g id="svg_1">
    <path id="pNAPHwkb" d="m2905,6819c-105,-11 -236,-28 -305,-41c-104,-18 -365,-99 -515,-159c-305,-122 -452,-217 -674,-438c-100,-99 -146,-154 -214,-258c-105,-159 -185,-322 -227,-463c-29,-99 -39,-144 -71,-315c-17,-90 -18,-441 -1,-555c39,-258 97,-423 240,-676c29,-51 52,-100 52,-110c0,-11 -36,-64 -80,-118c-174,-215 -296,-446 -344,-651c-49,-205 -49,-200 13,-258c111,-104 249,-130 398,-75c53,19 104,57 339,247c261,212 523,360 709,402c168,38 339,48 449,28c163,-30 410,-127 439,-172c65,-102 20,-226 -100,-278c-23,-10 -102,-36 -175,-59c-170,-53 -170,-53 -316,-121c-235,-111 -409,-232 -505,-354c-64,-82 -173,-192 -214,-217c-76,-48 -204,-73 -283,-57c-102,21 -169,60 -269,155c-51,49 -101,92 -110,96c-30,12 -85,8 -161,-13c-41,-12 -122,-28 -178,-37l-104,-15l7,-71c31,-356 229,-756 517,-1046c256,-260 572,-434 903,-501c80,-16 294,-39 368,-39c38,0 112,-5 165,-10c53,-6 142,-15 197,-21c193,-20 277,-38 495,-109c69,-23 129,-45 134,-51c6,-5 24,-9 42,-9c26,0 41,10 82,55c74,80 87,128 86,300c0,77 -5,151 -11,165c-10,23 -4,31 86,120c371,363 533,681 610,1198c13,88 14,343 2,426c-5,34 -15,99 -21,146c-7,47 -16,99 -20,115c-50,183 -98,301 -195,473c-46,81 -132,194 -247,324c-57,65 -71,92 -44,86c26,-6 170,-125 242,-200c158,-165 264,-322 346,-508c70,-161 91,-239 140,-520c13,-72 15,-76 73,-130c126,-117 167,-165 200,-235c54,-118 76,-260 52,-335c-49,-149 -58,-263 -23,-299c9,-8 41,-16 74,-19c55,-4 66,-1 150,43c355,183 724,618 889,1050c17,44 43,111 58,149c39,102 103,362 126,516c28,181 40,466 29,670c-8,142 -17,213 -55,430c-6,38 -22,99 -36,140c-4,14 -22,72 -40,130c-17,58 -46,137 -64,175c-60,127 -85,185 -85,194c0,12 -37,21 -86,21c-73,0 -77,-10 -86,-253c-4,-117 -12,-232 -17,-257c-5,-25 -15,-74 -21,-110c-12,-68 -16,-86 -50,-210c-79,-285 -210,-546 -388,-769c-106,-133 -160,-183 -213,-196c-24,-6 -27,-3 -32,29c-4,25 3,61 23,120c39,116 58,316 41,419c-21,121 -58,228 -103,295c-15,24 -35,57 -45,75c-63,122 -342,318 -483,339c-30,4 -172,12 -315,17c-321,12 -382,25 -590,122c-204,96 -411,320 -499,542c-74,187 -98,329 -80,485c31,272 132,466 367,705c43,43 86,96 97,118c23,43 26,121 9,179c-11,37 -12,37 -78,44c-89,8 -377,5 -476,-5zm-256,-4663c41,-22 88,-80 102,-126c16,-52 -7,-115 -60,-163c-94,-84 -239,-39 -281,87c-39,120 126,260 239,202zm-1355,-201c78,-33 132,-123 114,-191c-11,-43 -81,-111 -129,-125c-33,-10 -45,-10 -72,3c-78,37 -127,101 -127,166c0,45 51,115 101,140c53,26 66,26 113,7z"/>
    <path id="pS8UoTw7l" d="m1650,2588c-38,-21 -51,-55 -47,-127c3,-55 7,-67 31,-87c22,-20 38,-24 89,-24c40,0 70,6 84,15c27,19 43,72 43,145c0,55 -1,56 -35,69c-55,19 -136,24 -165,9z"/>
   </g>
  </g>
  <g id="l7CzqxKJ8NuXOca9EhtkOsZ" fill="rgb(255,255,255)">
   <g id="svg_2">
    <path id="pjOes3uPy" d="m0,3450l0,-3450l3590,0l3590,0l0,3450l0,3450l-3590,0l-3590,0l0,-3450zm3351,3344c66,-7 67,-7 78,-44c24,-81 5,-124 -106,-237c-188,-191 -279,-337 -336,-538c-67,-238 -52,-459 49,-712c88,-222 295,-446 499,-542c208,-97 269,-110 590,-122c143,-5 285,-13 315,-17c143,-21 422,-218 485,-342c9,-19 23,-42 30,-50c22,-25 74,-135 85,-181c37,-149 41,-182 30,-294c-7,-69 -23,-145 -42,-205c-26,-82 -30,-104 -24,-153l7,-57l41,0c78,0 137,45 260,201c178,225 309,484 388,769c34,124 38,142 50,210c6,36 16,85 21,110c5,25 13,141 17,258c7,196 10,214 29,233c16,16 28,20 52,14c17,-4 31,-11 31,-15c0,-9 25,-67 85,-195c18,-38 47,-117 64,-175c18,-58 36,-116 40,-130c14,-41 30,-102 36,-140c38,-217 47,-287 54,-420c10,-197 -1,-447 -28,-620c-23,-154 -87,-414 -126,-516c-15,-38 -41,-105 -58,-149c-165,-432 -534,-867 -889,-1050c-73,-38 -96,-46 -123,-41c-73,14 -76,64 -14,271c13,44 6,188 -13,265c-31,127 -83,202 -243,350c-58,54 -60,58 -73,130c-49,281 -70,359 -140,520c-87,198 -192,350 -362,521c-111,112 -223,199 -256,199c-13,0 -33,-9 -44,-20c-27,-27 -15,-56 58,-138c243,-275 355,-476 442,-797c4,-16 13,-68 20,-115c6,-47 16,-112 21,-146c30,-199 -8,-516 -93,-773c-41,-126 -126,-304 -194,-408c-94,-142 -264,-336 -401,-455c-41,-37 -42,-37 -27,-67c38,-76 42,-246 8,-344c-20,-58 -110,-162 -128,-148c-7,6 -68,28 -136,51c-159,51 -174,56 -235,68c-121,24 -166,32 -260,41c-55,6 -144,15 -197,21c-53,5 -127,10 -165,10c-74,0 -288,23 -368,39c-331,67 -647,241 -903,501c-224,226 -416,558 -480,830c-22,91 -25,106 -31,166l-7,62l101,15c55,8 135,24 177,36c45,12 85,18 96,13c11,-4 62,-47 113,-96c101,-97 167,-134 274,-156c98,-20 257,7 338,57c41,26 150,137 214,218c96,122 270,243 505,354c146,68 146,68 316,121c174,54 210,70 253,113c28,28 39,50 49,96c25,118 -5,188 -100,239c-71,37 -271,103 -366,121c-120,22 -339,10 -509,-28c-186,-42 -448,-190 -709,-402c-237,-192 -287,-228 -344,-249c-122,-46 -246,-15 -344,87c-41,42 -41,24 -2,188c47,200 176,446 337,643c92,112 100,127 94,167c-3,19 -29,77 -58,128c-189,334 -253,570 -253,932c0,161 3,196 39,380c44,220 130,424 272,638c68,104 114,159 214,258c222,221 369,316 674,438c150,60 411,141 515,159c239,43 543,62 721,46zm-1568,-4246c41,-12 46,-30 27,-100c-13,-44 -43,-68 -86,-68c-93,0 -127,135 -44,177c25,13 33,12 103,-9z"/>
    <path id="p6KYkW1IQ" d="m2534,2201c-126,-31 -198,-170 -149,-288c25,-59 71,-101 134,-119c48,-14 63,-14 111,-3c96,23 159,103 160,202c0,79 -45,158 -110,192c-34,17 -108,25 -146,16z"/>
    <path id="pWdfQHyCp" d="m1151,1978c-84,-41 -127,-146 -97,-236c37,-111 165,-172 271,-128c66,28 125,112 125,179c0,45 -24,108 -56,141c-63,67 -159,85 -243,44z"/>
   </g>
  </g>
  <ellipse fill="#ffffff" cx="1729.95342" cy="2487.44803" id="svg_6" rx="114.999" ry="129.99883" stroke="#000" stroke-width="0"/>
  <ellipse fill="#000000" stroke="#000" cx="1732.45339" cy="2484.94802" id="svg_5" rx="92.49919" ry="92.49919"/>
 </g>

</svg>